<?xml version="1.0" standalone="no"?>
<!DOCTYPE svg PUBLIC "-//W3C//DTD SVG 20010904//EN"
 "http://www.w3.org/TR/2001/REC-SVG-20010904/DTD/svg10.dtd">
<svg version="1.0" xmlns="http://www.w3.org/2000/svg"
 width="400.000000pt" height="400.000000pt" viewBox="0 0 400.000000 400.000000"
 preserveAspectRatio="xMidYMid meet">

<g transform="translate(0.000000,400.000000) scale(0.100000,-0.100000)"
fill="#000000" stroke="none">
<path d="M0 2000 l0 -2000 2000 0 2000 0 0 2000 0 2000 -2000 0 -2000 0 0
-2000z m1713 1073 c8 -28 35 -140 56 -233 11 -47 32 -134 46 -195 14 -60 35
-150 46 -200 11 -49 27 -115 34 -145 8 -30 33 -135 56 -232 23 -98 45 -178 49
-178 4 0 17 44 29 98 12 53 28 122 36 152 8 30 24 100 36 155 20 95 51 232 84
375 8 36 26 117 41 180 51 228 55 240 78 240 29 0 471 -30 524 -36 l42 -5 0
-193 c0 -158 -4 -206 -19 -267 -19 -72 -51 -194 -92 -349 -11 -41 -36 -133
-54 -205 -35 -136 -72 -278 -107 -405 -11 -41 -26 -100 -34 -130 -17 -69 -45
-177 -79 -305 -15 -55 -33 -125 -40 -155 -21 -93 -14 -87 -133 -94 -59 -4
-206 -13 -327 -21 -121 -8 -241 -15 -266 -15 l-45 0 -23 72 c-13 40 -32 100
-42 133 -10 33 -34 107 -53 165 -18 58 -55 173 -81 255 -26 83 -62 195 -80
250 -18 55 -45 141 -60 190 -14 50 -33 106 -40 125 -7 19 -34 103 -60 185 -26
83 -62 195 -80 250 -18 55 -54 168 -79 250 -26 83 -54 167 -62 189 -8 21 -12
41 -9 44 8 8 100 19 320 37 105 9 217 20 250 24 105 14 133 13 138 -6z"/>
</g>
</svg>
